HIERARCHY
ROOT Hips
{
  OFFSET 60.3409 92.7823 6.99863
  CHANNELS 6 Xposition Yposition Zposition Zrotation Xrotation Yrotation
  JOINT spine
  {
    OFFSET 0 7.4756 0.429885
    CHANNELS 3 Zrotation Xrotation Yrotation
    JOINT spine1
    {
      OFFSET 0 9.92301 0
      CHANNELS 3 Zrotation Xrotation Yrotation
      JOINT spine2
      {
        OFFSET 0 9.50804 0
        CHANNELS 3 Zrotation Xrotation Yrotation
        JOINT Neck
        {
          OFFSET 0 24.4111 1.16384
          CHANNELS 3 Zrotation Xrotation Yrotation
          JOINT Head
          {
            OFFSET 0 7.37523 0
            CHANNELS 3 Zrotation Xrotation Yrotation
            End Site
            {
              OFFSET 0 17.8522 -5.88741
            }
          }
        }
        JOINT RightShoulder
        {
          OFFSET -4.00356 10.2679 -0.557468
          CHANNELS 3 Zrotation Xrotation Yrotation
          JOINT RightArm
          {
            OFFSET 0 13.4673 0
            CHANNELS 3 Zrotation Xrotation Yrotation
            JOINT RightArmRoll
            {
              OFFSET 0 6.79858 0
              CHANNELS 3 Zrotation Xrotation Yrotation
              JOINT RightForeArm
              {
                OFFSET 0 19.8018 0
                CHANNELS 3 Zrotation Xrotation Yrotation
                JOINT RightForeArmRoll
                {
                  OFFSET 0 7.62905 0
                  CHANNELS 3 Zrotation Xrotation Yrotation
                  JOINT RightHand
                  {
                    OFFSET 0 15.3098 0
                    CHANNELS 3 Zrotation Xrotation Yrotation
                    End Site
                    {
                      OFFSET 0 0 0
                    }
                  }
                }
              }
            }
          }
        }
        JOINT LeftShoulder
        {
          OFFSET 4.00356 10.2679 -0.557468
          CHANNELS 3 Zrotation Xrotation Yrotation
          JOINT LeftArm
          {
            OFFSET 0 13.4673 0
            CHANNELS 3 Zrotation Xrotation Yrotation
            JOINT LeftArmRoll
            {
              OFFSET 0 6.79858 0
              CHANNELS 3 Zrotation Xrotation Yrotation
              JOINT LeftForeArm
              {
                OFFSET 0 19.8018 0
                CHANNELS 3 Zrotation Xrotation Yrotation
                JOINT LeftForeArmRoll
                {
                  OFFSET 0 7.62905 0
                  CHANNELS 3 Zrotation Xrotation Yrotation
                  JOINT LeftHand
                  {
                    OFFSET 0 15.3098 0
                    CHANNELS 3 Zrotation Xrotation Yrotation
                    End Site
                    {
                      OFFSET 0 0 0
                    }
                  }
                }
              }
            }
          }
        }
      }
    }
  }
  JOINT RightUpLeg
  {
    OFFSET -6.6261 -1.21505 -1.01927
    CHANNELS 3 Zrotation Xrotation Yrotation
    JOINT RightUpLegRoll
    {
      OFFSET 0 17.9517 0
      CHANNELS 3 Zrotation Xrotation Yrotation
      JOINT RightLeg
      {
        OFFSET 0 -22.2304 0
        CHANNELS 3 Zrotation Xrotation Yrotation
        JOINT RightLegRoll
        {
          OFFSET 0 22.3032 0
          CHANNELS 3 Zrotation Xrotation Yrotation
          JOINT RightFoot
          {
            OFFSET 0 18.5636 0
            CHANNELS 3 Zrotation Xrotation Yrotation
            JOINT RightToeBase
            {
              OFFSET 0 15.5183 0
              CHANNELS 3 Zrotation Xrotation Yrotation
              End Site
              {
                OFFSET 0.00657761 7.51538 -0.866263
              }
            }
          }
        }
      }
    }
  }
  JOINT LeftUpLeg
  {
    OFFSET 6.6261 -1.21505 -1.01927
    CHANNELS 3 Zrotation Xrotation Yrotation
    JOINT LeftUpLegRoll
    {
      OFFSET 0 17.9518 0
      CHANNELS 3 Zrotation Xrotation Yrotation
      JOINT LeftLeg
      {
        OFFSET 0 22.2303 0
        CHANNELS 3 Zrotation Xrotation Yrotation
        JOINT LeftLegRoll
        {
          OFFSET 0 22.5093 0
          CHANNELS 3 Zrotation Xrotation Yrotation
          JOINT LeftFoot
          {
            OFFSET 0 18.3575 0
            CHANNELS 3 Zrotation Xrotation Yrotation
            JOINT LeftToeBase
            {
              OFFSET 0 15.5183 0
              CHANNELS 3 Zrotation Xrotation Yrotation
              End Site
              {
                OFFSET -0.029478 7.51539 -0.866263
              }
            }
          }
        }
      }
    }
  }
}
MOTION
Frames: 12
Frame Time: 0.00208333
61.3124 92.5848 6.34376 2.70104 -10.4319 -2.93782 -0.269436 0.766773 0.275023 -0.555291 5.54813 0.579946 -0.563614 7.1931 0.591031 -19.9035 3.59287 -0.16532 18.0541 3.25223 -2.62412 56.5578 0.326048 0.477506 117.213 16.3824 8.39172 1.85008e-007 -3.03028e-009 -3.68952e-006 9.62837 0.242928 -0.788559 -2.10368e-005 1.66967e-006 -3.00098 8.02899 -4.95145 0.697672 -82.1902 -1.29511 3.10599 -91.6115 18.2753 -19.8304 -1.95399e-005 3.22167e-006 -1.95157e-006 -5.18605 2.48713 0.932026 3.45965e-006 1.25333e-006 3.00447 -8.02952 -4.95143 -0.697666 172.507 5.17078 4.42453 180 7.01503e-015 178.748 179.081 28.9721 179.068 2.7922e-006 -1.83524e-007 0.508918 -19.1387 68.4455 19.919 8.21617 30.22 -0.757213 172.55 -4.8832 5.68016 4.54188e-006 -4.6773e-006 -1.18452 -4.233 -9.28563 -0.121297 -4.2131e-007 -4.95531e-006 -0.116945 20.6611 69.9909 -21.3666 -8.13649 25.2327 3.48773 
61.3195 92.5844 6.33834 2.69685 -10.4235 -2.9268 -0.270044 0.766779 0.275055 -0.555572 5.54718 0.580747 -0.563896 7.19216 0.592576 -19.8646 3.53754 -0.18485 18.033 3.28129 -2.63326 56.5379 0.311186 0.470581 117.195 16.3094 8.14604 1.85008e-007 -3.03028e-009 -3.68952e-006 9.80767 0.402343 -0.791266 -2.10368e-005 1.66967e-006 -3.00098 8.02899 -4.95145 0.697672 -82.2072 -1.28253 3.10296 -91.5619 18.1642 -19.8373 -1.95399e-005 3.22167e-006 -1.95158e-006 -5.21607 2.729 0.949762 3.45965e-006 1.25333e-006 3.00447 -8.02952 -4.95143 -0.697666 172.514 5.17046 4.42168 180 7.01503e-015 178.748 179.077 28.961 179.069 2.7922e-006 -1.83524e-007 0.508924 -19.1372 68.4438 19.9173 8.21619 30.2203 -0.758763 172.56 -4.87394 5.6725 4.54188e-006 -4.6773e-006 -1.18452 -4.23839 -9.2876 -0.121804 -4.2131e-007 -4.95531e-006 -0.116942 20.654 69.987 -21.3626 -8.13649 25.2327 3.48773 
61.3249 92.5847 6.34075 2.69271 -10.4149 -2.91549 -0.27063 0.766681 0.275097 -0.555762 5.546 0.58159 -0.564089 7.19097 0.594211 -19.8253 3.48402 -0.204204 18.0107 3.30981 -2.6424 56.5188 0.295822 0.463222 117.176 16.237 7.90107 1.85008e-007 -3.03028e-009 -3.68952e-006 9.98812 0.553913 -0.792491 -2.10368e-005 1.66967e-006 -3.00098 8.02899 -4.95145 0.697672 -82.2241 -1.26938 3.09972 -91.5117 18.0522 -19.8462 -1.95399e-005 3.22167e-006 -1.95158e-006 -5.24574 2.96487 0.96691 3.45965e-006 1.25333e-006 3.00447 -8.02952 -4.95143 -0.697666 172.52 5.17012 4.41892 180 7.01503e-015 178.748 179.073 28.9498 179.071 2.7922e-006 -1.83524e-007 0.508932 -19.1358 68.4422 19.9158 8.21622 30.2206 -0.760399 172.57 -4.86458 5.6646 4.54188e-006 -4.6773e-006 -1.18452 -4.24405 -9.28949 -0.122335 -4.2131e-007 -4.95531e-006 -0.116935 20.6465 69.983 -21.3582 -8.13649 25.2327 3.48773 
61.3248 92.5854 6.34101 2.68861 -10.4062 -2.90398 -0.271201 0.766511 0.275147 -0.555889 5.54465 0.582461 -0.564219 7.18962 0.595909 -19.7857 3.43176 -0.223432 17.9876 3.33797 -2.65156 56.5004 0.280106 0.455559 117.155 16.165 7.65664 1.85008e-007 -3.03028e-009 -3.68952e-006 10.1694 0.699993 -0.792679 -2.10368e-005 1.66967e-006 -3.00098 8.02899 -4.95145 0.697672 -82.2408 -1.25585 3.09632 -91.4611 17.9396 -19.8564 -1.95399e-005 3.22167e-006 -1.95157e-006 -5.27519 3.19656 0.983653 3.45965e-006 1.25333e-006 3.00447 -8.02952 -4.95143 -0.697666 172.527 5.16977 4.41621 180 7.01503e-015 178.748 179.069 28.9385 179.073 2.7922e-006 -1.83524e-007 0.508943 -19.1344 68.4407 19.9144 8.21625 30.221 -0.762098 172.58 -4.85516 5.65655 4.54188e-006 -4.6773e-006 -1.18452 -4.2499 -9.2913 -0.122883 -4.2131e-007 -4.95531e-006 -0.116927 20.6388 69.9787 -21.3537 -8.13649 25.2327 3.48773 
61.3148 92.5859 6.33221 2.68452 -10.3974 -2.89235 -0.271762 0.766299 0.275202 -0.555981 5.54319 0.583349 -0.564312 7.18817 0.597643 -19.7459 3.38023 -0.242589 17.964 3.36591 -2.66072 56.4824 0.264189 0.447721 117.134 16.093 7.4126 1.85008e-007 -3.03028e-009 -3.68952e-006 10.3511 0.842934 -0.792276 -2.10368e-005 1.66967e-006 -3.00098 8.02899 -4.95145 0.697672 -82.2575 -1.24209 3.09284 -91.4102 17.8267 -19.8675 -1.95399e-005 3.22167e-006 -1.95157e-006 -5.30458 3.42585 1.00017 3.45965e-006 1.25333e-006 3.00447 -8.02952 -4.95143 -0.697666 172.533 5.16941 4.41353 180 7.01503e-015 178.748 179.065 28.9272 179.075 2.7922e-006 -1.83524e-007 0.508955 -19.1331 68.4392 19.913 8.21628 30.2213 -0.763831 172.59 -4.84569 5.6484 4.54188e-006 -4.6773e-006 -1.18452 -4.25586 -9.29307 -0.12344 -4.2131e-007 -4.95531e-006 -0.116917 20.6309 69.9744 -21.3491 -8.13649 25.2327 3.48773 
61.3169 92.5857 6.33452 2.68044 -10.3887 -2.88069 -0.272321 0.766076 0.275257 -0.556063 5.54172 0.584241 -0.564397 7.1867 0.599385 -19.7061 3.32888 -0.261726 17.9402 3.3938 -2.66989 56.4644 0.248222 0.43984 117.111 16.0208 7.1688 1.85008e-007 -3.03028e-009 -3.68952e-006 10.5329 0.985092 -0.791729 -2.10368e-005 1.66967e-006 -3.00098 8.02899 -4.95145 0.697672 -82.2742 -1.22827 3.08933 -91.3594 17.7137 -19.8788 -1.95399e-005 3.22167e-006 -1.95157e-006 -5.33404 3.65455 1.01666 3.45965e-006 1.25333e-006 3.00447 -8.02952 -4.95143 -0.697666 172.539 5.16905 4.41086 180 7.01503e-015 178.748 179.061 28.9158 179.076 2.7922e-006 -1.83524e-007 0.508967 -19.1319 68.4377 19.9117 8.21631 30.2217 -0.765573 172.6 -4.83621 5.64023 4.54188e-006 -4.6773e-006 -1.18452 -4.26185 -9.29484 -0.124 -4.2131e-007 -4.95531e-006 -0.116907 20.623 69.97 -21.3445 -8.13649 25.2327 3.48773 
61.3229 92.5875 6.33914 2.67634 -10.3799 -2.86909 -0.272885 0.765875 0.275311 -0.556163 5.54029 0.585124 -0.5645 7.18527 0.60111 -19.6665 3.27717 -0.280897 17.9168 3.42179 -2.67905 56.4462 0.232355 0.432046 117.089 15.948 6.92509 1.85008e-007 -3.03028e-009 -3.68952e-006 10.7145 1.12882 -0.791485 -2.10368e-005 1.66967e-006 -3.00098 8.02899 -4.95145 0.697672 -82.2909 -1.21456 3.08587 -91.3087 17.6009 -19.8899 -1.95399e-005 3.22167e-006 -1.95157e-006 -5.36374 3.88443 1.03329 3.45965e-006 1.25333e-006 3.00447 -8.02952 -4.95143 -0.697666 172.546 5.16869 4.40818 180 7.01503e-015 178.748 179.057 28.9044 179.078 2.7922e-006 -1.83524e-007 0.508979 -19.1306 68.4362 19.9102 8.21634 30.222 -0.767298 172.611 -4.82676 5.6321 4.54188e-006 -4.6773e-006 -1.18452 -4.26778 -9.29662 -0.124555 -4.2131e-007 -4.95531e-006 -0.116898 20.6152 69.9657 -21.3399 -8.13649 25.2327 3.48773 
61.3216 92.5884 6.3374 2.67222 -10.3712 -2.85764 -0.27346 0.765725 0.275359 -0.556308 5.53899 0.585987 -0.564647 7.18396 0.60279 -19.6271 3.22455 -0.300153 17.8939 3.45005 -2.68821 56.4276 0.216739 0.42447 117.065 15.8743 6.68132 1.85008e-007 -3.03028e-009 -3.68952e-006 10.8955 1.27647 -0.791991 -2.10368e-005 1.66967e-006 -3.00098 8.02899 -4.95145 0.697672 -82.3077 -1.20114 3.08252 -91.2584 17.4885 -19.9 -1.95399e-005 3.22167e-006 -1.95157e-006 -5.39384 4.11731 1.05026 3.45965e-006 1.25333e-006 3.00447 -8.02952 -4.95143 -0.697666 172.552 5.16834 4.40545 180 7.01503e-015 178.748 179.053 28.8932 179.08 2.7922e-006 -1.83524e-007 0.508989 -19.1292 68.4347 19.9088 8.21637 30.2223 -0.768979 172.621 -4.81735 5.62409 4.54188e-006 -4.6773e-006 -1.18452 -4.27357 -9.29846 -0.125097 -4.2131e-007 -4.95531e-006 -0.11689 20.6076 69.9615 -21.3355 -8.13649 25.2327 3.48773 
61.3256 92.5951 6.33201 2.66804 -10.3627 -2.84642 -0.274053 0.765658 0.275398 -0.556525 5.53787 0.586817 -0.564866 7.18285 0.604398 -19.5881 3.17049 -0.319548 17.872 3.47873 -2.69736 56.4083 0.201526 0.417241 117.042 15.7995 6.43735 1.85008e-007 -3.03028e-009 -3.68952e-006 11.0757 1.43039 -0.793695 -2.10368e-005 1.66967e-006 -3.00098 8.02899 -4.95145 0.697672 -82.3246 -1.18816 3.07934 -91.2087 17.3769 -19.9087 -1.95399e-005 3.22167e-006 -1.95157e-006 -5.4245 4.35496 1.06774 3.45965e-006 1.25333e-006 3.00447 -8.02952 -4.95143 -0.697666 172.559 5.16801 4.40266 180 7.01503e-015 178.748 179.049 28.882 179.082 2.7922e-006 -1.83524e-007 0.508997 -19.1278 68.4331 19.9073 8.21639 30.2227 -0.770589 172.631 -4.80801 5.61627 4.54188e-006 -4.6773e-006 -1.18452 -4.27915 -9.30037 -0.125621 -4.2131e-007 -4.95531e-006 -0.116884 20.6002 69.9575 -21.3312 -8.13649 25.2327 3.48773 
61.3251 92.5957 6.33302 2.6638 -10.3544 -2.83552 -0.27467 0.765705 0.275426 -0.556841 5.53703 0.587603 -0.565184 7.18201 0.605907 -19.5497 3.11443 -0.339133 17.8515 3.508 -2.7065 56.388 0.186865 0.410491 117.019 15.7233 6.19302 1.85008e-007 -3.03028e-009 -3.68952e-006 11.2546 1.59294 -0.797047 -2.10368e-005 1.66967e-006 -3.00098 8.02899 -4.95145 0.697672 -82.3416 -1.1758 3.0764 -91.1596 17.2663 -19.9155 -1.95399e-005 3.22167e-006 -1.95158e-006 -5.45589 4.5992 1.08593 3.45965e-006 1.25333e-006 3.00447 -8.02952 -4.95143 -0.697666 172.565 5.16769 4.39978 180 7.01503e-015 178.748 179.046 28.871 179.083 2.7922e-006 -1.83524e-007 0.509002 -19.1263 68.4313 19.9056 8.21642 30.223 -0.772103 172.641 -4.79879 5.60871 4.54188e-006 -4.6773e-006 -1.18452 -4.28443 -9.30238 -0.126118 -4.2131e-007 -4.95531e-006 -0.116882 20.5932 69.9538 -21.3273 -8.13649 25.2327 3.48773 
61.3299 92.5939 6.3386 2.65947 -10.3463 -2.82502 -0.275318 0.765898 0.275438 -0.557283 5.53652 0.588331 -0.565628 7.1815 0.607292 -19.512 3.05584 -0.358962 17.8326 3.53801 -2.71562 56.3665 0.172907 0.404349 116.996 15.6453 5.94819 1.85008e-007 -3.03028e-009 -3.68952e-006 11.432 1.76647 -0.802494 -2.10368e-005 1.66967e-006 -3.00098 8.02899 -4.95145 0.697672 -82.3589 -1.16422 3.07376 -91.1114 17.1569 -19.9197 -1.95399e-005 3.22167e-006 -1.95158e-006 -5.48819 4.8518 1.10502 3.45965e-006 1.25333e-006 3.00447 -8.02952 -4.95143 -0.697666 172.572 5.16739 4.39679 180 7.01503e-015 178.748 179.042 28.8602 179.085 2.7922e-006 -1.83524e-007 0.509002 -19.1246 68.4295 19.9038 8.21645 30.2233 -0.773494 172.65 -4.7897 5.60147 4.54188e-006 -4.6773e-006 -1.18452 -4.28933 -9.30452 -0.126582 -4.2131e-007 -4.95531e-006 -0.116883 20.5868 69.9504 -21.3237 -8.13649 25.2327 3.48773 
61.3305 92.5951 6.33668 2.65505 -10.3385 -2.81502 -0.276003 0.766267 0.275432 -0.557878 5.53642 0.588989 -0.566224 7.1814 0.608524 -19.4751 2.99417 -0.379086 17.8159 3.56892 -2.72473 56.3435 0.159803 0.398946 116.974 15.5652 5.70273 1.85008e-007 -3.03028e-009 -3.68952e-006 11.6075 1.95334 -0.810488 -2.10368e-005 1.66967e-006 -3.00098 8.02899 -4.95145 0.697672 -82.3763 -1.1536 3.07149 -91.0643 17.049 -19.9207 -1.95399e-005 3.22167e-006 -1.95157e-006 -5.52158 5.11457 1.1252 3.45965e-006 1.25333e-006 3.00447 -8.02952 -4.95143 -0.697666 172.578 5.16712 4.39367 180 7.01503e-015 178.748 179.039 28.8496 179.086 2.7922e-006 -1.83524e-007 0.508998 -19.1228 68.4274 19.9019 8.21647 30.2236 -0.774736 172.66 -4.78077 5.59463 4.54188e-006 -4.6773e-006 -1.18452 -4.29376 -9.30683 -0.127004 -4.2131e-007 -4.95531e-006 -0.116889 20.5809 69.9475 -21.3205 -8.13649 25.2327 3.48773 
